<svg width="128" height="127" viewBox="0 0 128 127" fill="none" xmlns="http://www.w3.org/2000/svg">
<path d="M63.9941 125.661C98.5999 125.661 126.653 97.755 126.653 63.3307C126.653 28.9064 98.5999 0.999985 63.9941 0.999985C29.3884 0.999985 1.33484 28.9064 1.33484 63.3307C1.33484 97.755 29.3884 125.661 63.9941 125.661Z" stroke="white" stroke-width="1.51786" stroke-miterlimit="10"/>
<path d="M63.9939 125.661C88.5188 125.661 108.4 97.755 108.4 63.3307C108.4 28.9064 88.5188 0.999985 63.9939 0.999985C39.469 0.999985 19.5876 28.9064 19.5876 63.3307C19.5876 97.755 39.469 125.661 63.9939 125.661Z" stroke="white" stroke-width="1.51786" stroke-miterlimit="10"/>
<path d="M63.9938 125.661C78.4536 125.661 90.1756 97.755 90.1756 63.3307C90.1756 28.9064 78.4536 0.999985 63.9938 0.999985C49.5341 0.999985 37.8121 28.9064 37.8121 63.3307C37.8121 97.755 49.5341 125.661 63.9938 125.661Z" stroke="white" stroke-width="1.51786" stroke-miterlimit="10"/>
<path d="M63.9942 125.661C68.3731 125.661 71.9229 97.755 71.9229 63.3307C71.9229 28.9064 68.3731 0.999985 63.9942 0.999985C59.6153 0.999985 56.0656 28.9064 56.0656 63.3307C56.0656 97.755 59.6153 125.661 63.9942 125.661Z" stroke="white" stroke-width="1.51786" stroke-miterlimit="10"/>
<path d="M28.9141 11.7807H99.2168" stroke="white" stroke-width="1.51786" stroke-miterlimit="10" stroke-linecap="round"/>
<path d="M9.5199 32.406H118.439" stroke="white" stroke-width="1.51786" stroke-miterlimit="10" stroke-linecap="round"/>
<path d="M9.57629 94.2265H118.382" stroke="white" stroke-width="1.51786" stroke-miterlimit="10" stroke-linecap="round"/>
<path d="M28.7428 114.852H99.2167" stroke="white" stroke-width="1.51786" stroke-miterlimit="10" stroke-linecap="round"/>
</svg>
